# xmcd
#
# Track frame offsets:
#	150
#	18843
#	35107
#	51841
#	70657
#	93061
#	111008
#	129033
#	148267
#	164837
#	181810
#	199314
#	215982
#	233821
#	253766
#	287105
#
# Disc length: 3841 seconds
#
# Revision: 0
# Processed by: cddbd v1.5.1PL0 Copyright (c) Steve Scherf et al.
# Submitted via: audiograbber 1.83.01
#
DISCID=ef0eff10
DTITLE=sound choice - SC8898
DYEAR=2004
DGENRE=karaoke
TTITLE0=Big and Rich - Kick My A$$ (Radio Version)
TTITLE1=Alan Jackson - Monday Morning Church
TTITLE2=Brad Paisley - Mud On The Tires
TTITLE3=Shania Twain - Don't
TTITLE4=Julie Roberts - The Chance
TTITLE5=Darryl Worley - Awful Beautiful Life
TTITLE6=Rascal Flats - Bless The Broken Road
TTITLE7=Blaine Larsen - How Do You Get That Lonely
TTITLE8=Jamie O'Neal - Trying To Find Atlantis
TTITLE9=Phil Vassar - In A Real Love
TTITLE10=Toby Keith and Krystal - Mockingbird
TTITLE11=Lonestar - Mr. Mom
TTITLE12=Dierks Bentley - How Am I Doin'
TTITLE13=Keith Urban - You're My Better Half
TTITLE14=Sara Evans - Tonight (Radio Version)
TTITLE15=data track - Data Track
EXTD=
EXTT0=
EXTT1=
EXTT2=
EXTT3=
EXTT4=
EXTT5=
EXTT6=
EXTT7=
EXTT8=
EXTT9=
EXTT10=
EXTT11=
EXTT12=
EXTT13=
EXTT14=
EXTT15=
PLAYORDER=
